#!OML:ASF F:\VICON\USERDATA\INSTALL\rory3\rory3.ASF
:FULLY-SPECIFIED
:DEGREES
163
root 1.94485 17.3626 40.0975 -8.26293 -9.9292 7.40947
lowerback 32.7932 -1.48052 1.7998
upperback 4.81194 -0.228697 8.17262
thorax -11.6903 -0.0976106 7.97042
lowerneck 2.157 -13.3382 -11.4377
upperneck 25.2855 -18.225 0.793495
head 8.75239 -9.50685 0.703658
rclavicle -3.65764e-014 -5.40694e-014
rhumerus -16.6254 -6.02359 -46.1859
rradius 50.5083
rwrist 35.0321
rhand -5.0241 6.38838
rfingers 7.12502
rthumb 20.7703 -22.52
lclavicle -3.65764e-014 -5.40694e-014
lhumerus -43.6998 3.47043 82.251
lradius 51.651
lwrist 7.33234
lhand -3.95934 48.7937
lfingers 7.12502
lthumb 21.793 77.5867
rfemur -33.1934 3.23701 13.2395
rtibia 44.9454
rfoot -1.27371 -4.15388
rtoes 14.7306
lfemur -18.622 12.2841 -28.1625
ltibia 69.011
lfoot -6.19436 -9.28185
ltoes -25.7953
164
root 1.95033 17.3084 39.9953 -8.51434 -10.2868 7.02362
lowerback 33.195 -1.2243 2.12731
upperback 4.74305 0.295858 8.55345
thorax -12.0096 0.139756 8.02054
lowerneck 2.34786 -13.3912 -12.0073
upperneck 25.4243 -18.3336 0.93712
head 8.85342 -9.5944 0.817918
rclavicle -1.59028e-015 -5.40694e-014
rhumerus -16.3382 -7.03904 -46.0176
rradius 47.1775
rwrist 35.4891
rhand -4.12081 5.40262
rfingers 7.12502
rthumb 21.6379 -23.4083
lclavicle -1.59028e-015 -5.40694e-014
lhumerus -43.6153 3.31371 82.5357
lradius 51.9874
lwrist 7.33572
lhand -3.91193 48.8504
lfingers 7.12502
lthumb 21.8385 77.6381
rfemur -33.5141 3.60828 13.7844
rtibia 45.238
rfoot -1.00753 -4.19514
rtoes 15.5867
lfemur -18.0697 12.6518 -27.688
ltibia 70.0489
lfoot -5.5697 -10.0667
ltoes -26.4782
165
root 1.96658 17.2632 39.8974 -8.58335 -10.1795 7.18323
lowerback 32.5018 -1.30693 1.93161
upperback 5.89657 -0.0521375 8.44147
thorax -10.3793 -0.0645078 8.064
lowerneck -0.963949 -13.6051 -10.2154
upperneck 25.7992 -18.2046 0.0482058
head 9.27058 -9.39849 0.0425997
rclavicle -3.49861e-014 -9.85972e-014
rhumerus -13.5975 -9.9033 -47.3822
rradius 43.3116
rwrist 36.8304
rhand -3.70291 5.16772
rfingers 7.12502
rthumb 22.0392 -23.5965
lclavicle -3.49861e-014 -9.85972e-014
lhumerus -41.2264 4.09337 81.8332
lradius 52.2255
lwrist 7.66075
lhand -4.08374 48.9954
lfingers 7.12502
lthumb 21.6735 77.8023
rfemur -34.0016 3.1779 13.6217
rtibia 45.5141
rfoot -0.724102 -3.85882
rtoes 15.859
lfemur -17.5956 12.4633 -28.1072
ltibia 70.8404
lfoot -4.82907 -10.5225
ltoes -26.557
166
root 1.99156 17.216 39.8 -8.77457 -9.91247 7.65026
lowerback 32.1743 -1.33317 1.81302
upperback 6.2963 -0.193817 8.34073
thorax -9.7801 -0.143808 8.04399
lowerneck -2.18433 -13.6922 -9.69521
upperneck 25.8891 -18.1869 -0.257553
head 9.4308 -9.35108 -0.221907
rclavicle -2.06736e-014 -1.01778e-013
rhumerus -12.5626 -12.1993 -47.8184
rradius 40.0077
rwrist 37.485
rhand -3.19954 4.92262
rfingers 7.12502
rthumb 22.5225 -23.7838
lclavicle -2.06736e-014 -1.01778e-013
lhumerus -40.3159 4.45642 81.5845
lradius 52.7228
lwrist 7.75968
lhand -4.21972 48.9904
lfingers 7.12502
lthumb 21.543 77.8122
rfemur -34.4234 2.56474 13.0609
rtibia 45.7912
rfoot -0.39191 -3.36342
rtoes 15.5345
lfemur -16.8972 12.1314 -28.948
ltibia 71.3783
lfoot -3.9596 -10.8515
ltoes -26.8668
167
root 2.00664 17.1654 39.6945 -8.98098 -10.0441 7.55381
lowerback 32.4625 -1.18438 2.02715
upperback 5.94274 0.147444 8.57012
thorax -10.3403 0.026718 8.07372
lowerneck -1.49684 -13.6866 -10.1889
upperneck 25.912 -18.1793 -0.365904
head 9.36067 -9.41223 -0.138531
rclavicle -3.49861e-014 7.63333e-014
rhumerus -13.1021 -13.8376 -47.3622
rradius 37.2434
rwrist 37.5054
rhand -3.16041 4.90916
rfingers 7.12502
rthumb 22.56 -23.7927
lclavicle -3.49861e-014 7.63333e-014
lhumerus -40.8375 4.4328 81.7273
lradius 53.1885
lwrist 7.91528
lhand -4.35974 49.1166
lfingers 7.12502
lthumb 21.4085 77.9538
rfemur -34.7966 2.63891 13.225
rtibia 46.0344
rfoot -0.0766444 -3.30582
rtoes 15.2416
lfemur -16.2024 12.2562 -28.9437
ltibia 71.9036
lfoot -3.33016 -11.4231
ltoes -27.3685
168
root 2.01686 17.1124 39.5755 -9.04383 -10.1592 7.34634
lowerback 32.8572 -1.02217 2.34517
upperback 5.42084 0.577769 8.84347
thorax -11.1475 0.240308 8.06822
lowerneck -0.355455 -13.6767 -10.8713
upperneck 25.8532 -18.2316 -0.348548
head 9.21912 -9.51208 0.0421334
rclavicle 1.11319e-014 -1.01778e-013
rhumerus -14.233 -15.308 -46.6111
rradius 35.2414
rwrist 36.881
rhand -3.19586 4.55957
rfingers 7.12502
rthumb 22.526 -24.1464
lclavicle 1.11319e-014 -1.01778e-013
lhumerus -41.6243 4.26117 81.9873
lradius 53.5613
lwrist 8.11436
lhand -4.91258 49
lfingers 7.12502
lthumb 20.8774 77.8966
rfemur -35.3456 2.9166 13.4885
rtibia 46.2566
rfoot 0.322887 -3.4983
rtoes 15.694
lfemur -15.7487 12.3122 -28.8104
ltibia 72.2765
lfoot -2.36315 -11.6948
ltoes -25.6493
169
root 2.02674 17.0714 39.4719 -9.3622 -10.337 7.48915
lowerback 33.1561 -0.920282 2.08445
upperback 5.58738 0.619159 8.84157
thorax -11.0938 0.261567 8.19364
lowerneck -1.20354 -13.6915 -10.1329
upperneck 26.0986 -18.1043 -0.937609
head 9.30927 -9.43205 -0.302563
rclavicle 1.59028e-015 2.8625e-014
rhumerus -14.2166 -17.6277 -46.894
rradius 33.5502
rwrist 36.088
rhand -3.37187 4.23668
rfingers 7.12502
rthumb 22.357 -24.4897
lclavicle 1.59028e-015 2.8625e-014
lhumerus -41.4232 4.77371 81.5904
lradius 54.0371
lwrist 8.46661
lhand -5.48711 48.455
lfingers 7.12502
lthumb 20.3253 77.4114
rfemur -35.5804 3.3004 13.3744
rtibia 46.3522
rfoot 0.72642 -3.56516
rtoes 16.1324
lfemur -14.8553 12.3788 -29.0278
ltibia 72.3541
lfoot -1.26869 -11.6939
ltoes -22.154
170
root 2.05362 17.0382 39.3682 -9.58858 -9.92263 8.31297
lowerback 32.8981 -0.900621 1.72147
upperback 5.79438 0.4507 8.56107
thorax -10.7294 0.18588 8.1326
lowerneck -1.9006 -13.8493 -9.79677
upperneck 26.4608 -18.2916 -0.981342
head 9.53073 -9.47833 -0.454621
rclavicle -1.43125e-014 0
rhumerus -14.5118 -20.3263 -46.9216
rradius 32.1908
rwrist 34.8389
rhand -4.23147 3.84282
rfingers 7.12502
rthumb 21.5317 -24.9803
lclavicle -1.43125e-014 0
lhumerus -40.8686 4.98221 81.3451
lradius 54.4416
lwrist 8.9483
lhand -6.01497 48.3203
lfingers 7.12502
lthumb 19.818 77.33
rfemur -35.8809 2.71418 12.3362
rtibia 46.3776
rfoot 0.868022 -3.2712
rtoes 15.7189
lfemur -13.9366 11.7545 -30.3985
ltibia 72.0575
lfoot -0.235314 -10.9117
ltoes -19.6446
171
root 2.06889 17.0097 39.241 -9.51376 -9.70222 8.36774
lowerback 33.0085 -0.891994 1.81503
upperback 5.38231 0.549929 8.60352
thorax -11.2515 0.247596 8.11013
lowerneck -0.946417 -13.842 -9.83472
upperneck 26.642 -18.2926 -1.35225
head 9.39368 -9.53147 -0.495461
rclavicle 4.29375e-014 2.54444e-014
rhumerus -15.6933 -22.7105 -46.3082
rradius 30.9085
rwrist 33.9779
rhand -5.60441 4.41223
rfingers 7.12502
rthumb 20.2126 -24.5562
lclavicle 4.29375e-014 2.54444e-014
lhumerus -41.527 4.98834 81.2391
lradius 54.9266
lwrist 9.33154
lhand -6.40136 48.3036
lfingers 7.12502
lthumb 19.4465 77.3512
rfemur -36.3581 2.77263 12.1442
rtibia 46.2267
rfoot 0.965922 -3.78745
rtoes 14.0976
lfemur -13.4556 11.2172 -30.8088
ltibia 71.7566
lfoot 1.21808 -10.0223
ltoes -17.9674
172
root 2.077 16.9834 39.1027 -9.38601 -9.5538 8.32017
lowerback 32.8152 -0.91677 1.74426
upperback 5.50687 0.479407 8.67191
thorax -11.0291 0.213379 8.24283
lowerneck -1.66271 -13.6649 -9.46097
upperneck 25.731 -18.0951 -0.825538
head 9.19493 -9.35376 -0.369558
rclavicle 1.27222e-014 -6.36111e-015
rhumerus -16.4454 -23.6236 -46.4125
rradius 31.0965
rwrist 31.4921
rhand -6.90111 4.49538
rfingers 7.12502
rthumb 18.9659 -24.6
lclavicle 1.27222e-014 -6.36111e-015
lhumerus -41.3948 5.56987 80.9635
lradius 55.4194
lwrist 9.84313
lhand -6.982 48.0222
lfingers 7.12502
lthumb 18.8881 77.1252
rfemur -36.8418 3.02574 12.0903
rtibia 45.9083
rfoot 1.42769 -4.29877
rtoes 13.7556
lfemur -13.0753 10.6753 -31.0273
ltibia 71.2381
lfoot 2.86443 -8.94961
ltoes -15.422
173
root 2.10903 16.9545 38.9594 -9.34823 -9.07809 8.50361
lowerback 32.8239 -1.14733 1.91743
upperback 5.40174 0.244196 8.5571
thorax -11.1101 0.102653 8.11644
lowerneck -1.79487 -13.7976 -9.46757
upperneck 26.2158 -18.2633 -0.946689
head 9.38847 -9.43742 -0.459834
rclavicle -4.29375e-014 -8.90555e-014
rhumerus -17.3511 -24.7897 -46.3788
rradius 31.0833
rwrist 29.7279
rhand -8.50978 4.30434
rfingers 7.12502
rthumb 17.4183 -24.9352
lclavicle -4.29375e-014 -8.90555e-014
lhumerus -41.4521 5.88426 80.75
lradius 55.6327
lwrist 10.431
lhand -7.92381 47.7646
lfingers 7.12502
lthumb 17.9821 76.9533
rfemur -37.0391 2.60582 11.7099
rtibia 45.331
rfoot 2.20035 -4.08539
rtoes 13.6216
lfemur -12.4737 9.7172 -31.7141
ltibia 70.4853
lfoot 3.6154 -7.80118
ltoes -13.5775
174
root 2.11347 16.9469 38.8519 -9.42972 -9.22529 8.50347
lowerback 32.4771 -1.14483 1.65874
upperback 5.70303 0.106757 8.56463
thorax -10.6183 0.0331937 8.29798
lowerneck -2.49672 -13.7004 -8.83984
upperneck 26.1979 -18.0133 -1.42884
head 9.37799 -9.30637 -0.719827
rclavicle 5.725e-014 4.77083e-014
rhumerus -17.5353 -26.7697 -46.7531
rradius 30.7158
rwrist 29.2418
rhand -10.4649 4.53064
rfingers 7.12502
rthumb 15.5359 -24.8653
lclavicle 5.725e-014 4.77083e-014
lhumerus -41.3066 6.59793 80.3766
lradius 55.7719
lwrist 11.1547
lhand -8.89886 47.3848
lfingers 7.12502
lthumb 17.0438 76.6571
rfemur -37.0501 3.04803 11.7045
rtibia 44.7871
rfoot 2.74905 -4.29302
rtoes 13.4718
lfemur -11.3975 9.33225 -31.9044
ltibia 69.2915
lfoot 3.28004 -6.99796
ltoes -11.2067
175
root 2.12141 16.9464 38.7167 -9.37956 -9.47387 7.48958
lowerback 32.6361 -1.25121 2.43984
upperback 5.46301 0.312642 8.92254
thorax -10.9782 0.115801 8.19988
lowerneck -1.35389 -13.5569 -9.19675
upperneck 25.6947 -17.9317 -1.12709
head 9.06115 -9.29118 -0.451991
rclavicle 2.06736e-014 -7.63333e-014
rhumerus -19.0107 -27.912 -46.1824
rradius 31.012
rwrist 28.8206
rhand -12.4408 4.95618
rfingers 7.12502
rthumb 13.6322 -24.5774
lclavicle 2.06736e-014 -7.63333e-014
lhumerus -42.0869 6.80065 80.3878
lradius 55.9461
lwrist 11.8291
lhand -9.74419 47.5254
lfingers 7.12502
lthumb 16.23 76.866
rfemur -36.936 3.7251 12.7873
rtibia 43.998
rfoot 3.47012 -4.79661
rtoes 13.2097
lfemur -10.4515 8.93053 -30.8583
ltibia 67.9674
lfoot 2.12267 -6.86782
ltoes -11.1559
176
root 2.14777 16.921 38.5623 -8.95856 -8.79568 9.11147
lowerback 32.1789 -1.29258 0.862941
upperback 5.40804 -0.350647 8.45187
thorax -10.7736 -0.141622 8.79718
lowerneck -1.87936 -13.4742 -8.84913
upperneck 25.7217 -17.8058 -1.11832
head 9.12067 -9.19611 -0.523481
rclavicle -4.77083e-015 -5.725e-014
rhumerus -19.3551 -28.855 -46.8768
rradius 31.9029
rwrist 28.1206
rhand -14.0339 5.36894
rfingers 7.12502
rthumb 12.0964 -24.2614
lclavicle -4.77083e-015 -5.725e-014
lhumerus -41.9984 7.73895 79.9389
lradius 56.0936
lwrist 12.3456
lhand -10.1564 47.4803
lfingers 7.12502
lthumb 15.833 76.8529
rfemur -37.928 3.06511 10.7369
rtibia 43.3883
rfoot 4.36746 -4.53558
rtoes 14.0552
lfemur -10.1512 7.51031 -33.3271
ltibia 65.9697
lfoot 0.511106 -6.63971
ltoes -15.6025
